<?xml version="1.0" encoding="utf-8"?>
<!-- Generator: Adobe Illustrator 23.0.3, SVG Export Plug-In . SVG Version: 6.00 Build 0)  -->
<svg version="1.1" id="Layer_1" xmlns="http://www.w3.org/2000/svg" xmlns:xlink="http://www.w3.org/1999/xlink" x="0px" y="0px"
	 viewBox="0 0 600 138.6" style="enable-background:new 0 0 600 138.6;" xml:space="preserve">
<style type="text/css">
	.st0{fill:#FFFFFF;}
</style>
<g>
	<path class="st0" d="M74.14,25.92v86.21H61.82V73.7H12.32v38.42H0V25.92h12.32v37.07h49.51V25.92H74.14z"/>
	<path class="st0" d="M142.8,52.89c4.8,4.43,7.2,11.04,7.2,19.83v39.41h-11.21v-8.62c-1.97,3.04-4.78,5.36-8.44,6.96
		c-3.65,1.6-7.99,2.4-12.99,2.4c-7.31,0-13.16-1.76-17.55-5.29c-4.39-3.53-6.59-8.17-6.59-13.92c0-5.75,2.09-10.36,6.28-13.85
		c4.19-3.49,10.84-5.23,19.95-5.23h18.72v-2.34c0-5.09-1.48-8.99-4.43-11.7c-2.96-2.71-7.31-4.06-13.05-4.06
		c-3.86,0-7.64,0.64-11.33,1.91c-3.69,1.27-6.82,2.98-9.36,5.11l-4.93-8.87c3.37-2.71,7.39-4.78,12.07-6.22
		c4.68-1.44,9.65-2.16,14.9-2.16C131.08,46.24,137.99,48.45,142.8,52.89z M131.03,100.73c3.28-2.01,5.67-4.87,7.14-8.56v-9.11
		h-18.23c-10.02,0-15.02,3.37-15.02,10.1c0,3.28,1.27,5.87,3.82,7.76c2.54,1.89,6.08,2.83,10.59,2.83
		C123.85,103.75,127.75,102.74,131.03,100.73z"/>
	<path class="st0" d="M226.54,53.44c4.88,4.8,7.33,11.84,7.33,21.12v37.56h-11.82V75.92c0-6.32-1.52-11.08-4.56-14.29
		c-3.04-3.2-7.39-4.8-13.05-4.8c-6.4,0-11.45,1.87-15.15,5.6c-3.69,3.74-5.54,9.09-5.54,16.07v33.62h-11.82V46.85h11.33v9.85
		c2.38-3.36,5.6-5.95,9.67-7.76c4.06-1.8,8.68-2.71,13.85-2.71C215.06,46.24,221.65,48.64,226.54,53.44z"/>
	<path class="st0" d="M300.31,52.89c4.8,4.43,7.2,11.04,7.2,19.83v39.41h-11.21v-8.62c-1.97,3.04-4.78,5.36-8.44,6.96
		c-3.65,1.6-7.99,2.4-12.99,2.4c-7.31,0-13.16-1.76-17.55-5.29c-4.39-3.53-6.59-8.17-6.59-13.92c0-5.75,2.09-10.36,6.28-13.85
		c4.19-3.49,10.84-5.23,19.95-5.23h18.72v-2.34c0-5.09-1.48-8.99-4.43-11.7c-2.96-2.71-7.31-4.06-13.05-4.06
		c-3.86,0-7.64,0.64-11.33,1.91c-3.69,1.27-6.82,2.98-9.36,5.11l-4.93-8.87c3.37-2.71,7.39-4.78,12.07-6.22
		c4.68-1.44,9.65-2.16,14.9-2.16C288.59,46.24,295.51,48.45,300.31,52.89z M288.55,100.73c3.28-2.01,5.67-4.87,7.14-8.56v-9.11
		h-18.23c-10.02,0-15.02,3.37-15.02,10.1c0,3.28,1.27,5.87,3.82,7.76c2.54,1.89,6.08,2.83,10.59,2.83
		C281.36,103.75,285.26,102.74,288.55,100.73z"/>
	<path class="st0" d="M400.99,74.99c2.87,3.65,4.31,8.27,4.31,13.85c0,7.47-2.81,13.22-8.44,17.24c-5.63,4.02-13.81,6.03-24.57,6.03
		h-41.13V25.92h38.67c9.85,0,17.47,1.97,22.85,5.91c5.38,3.94,8.07,9.4,8.07,16.38c0,4.52-1.05,8.42-3.14,11.7
		c-2.09,3.28-4.91,5.79-8.43,7.51C394.17,68.82,398.11,71.34,400.99,74.99z M343.47,35.89v27.59h25.25c6.32,0,11.19-1.17,14.59-3.51
		c3.41-2.34,5.11-5.77,5.11-10.28c0-4.51-1.7-7.94-5.11-10.28c-3.41-2.34-8.27-3.51-14.59-3.51H343.47z M387.56,98.7
		c3.53-2.3,5.29-5.91,5.29-10.84c0-9.61-7.02-14.41-21.06-14.41h-28.33v28.69h28.33C378.78,102.15,384.03,101,387.56,98.7z"/>
	<path class="st0" d="M443.1,49.19c4.02-1.97,8.91-2.96,14.65-2.96v11.45c-0.66-0.08-1.56-0.12-2.71-0.12
		c-6.4,0-11.43,1.91-15.08,5.73c-3.65,3.82-5.48,9.26-5.48,16.32v32.51h-11.82V46.85h11.33v10.96
		C436.04,54.04,439.08,51.16,443.1,49.19z"/>
	<path class="st0" d="M482.33,108.55c-5.22-2.87-9.3-6.83-12.25-11.88c-2.96-5.05-4.43-10.77-4.43-17.18
		c0-6.4,1.48-12.13,4.43-17.18c2.96-5.05,7.04-8.99,12.25-11.82c5.21-2.83,11.14-4.25,17.79-4.25c5.91,0,11.19,1.19,15.83,3.57
		c4.64,2.38,8.23,5.83,10.78,10.34l-8.99,5.79c-2.05-3.12-4.6-5.46-7.64-7.02c-3.04-1.56-6.4-2.34-10.1-2.34
		c-4.27,0-8.11,0.95-11.51,2.83c-3.41,1.89-6.08,4.58-8,8.07c-1.93,3.49-2.89,7.49-2.89,12.01c0,4.6,0.96,8.64,2.89,12.13
		c1.93,3.49,4.6,6.18,8,8.07c3.41,1.89,7.25,2.83,11.51,2.83c3.7,0,7.06-0.78,10.1-2.34c3.04-1.56,5.58-3.9,7.64-7.02l8.99,5.66
		c-2.55,4.52-6.14,7.99-10.78,10.41c-4.64,2.42-9.91,3.63-15.83,3.63C493.47,112.86,487.54,111.43,482.33,108.55z"/>
	<path class="st0" d="M599.75,83.43H546.8c0.74,5.75,3.26,10.37,7.57,13.86c4.31,3.49,9.67,5.23,16.07,5.23
		c7.8,0,14.08-2.63,18.84-7.88l6.53,7.64c-2.96,3.45-6.63,6.08-11.02,7.88c-4.39,1.81-9.3,2.71-14.72,2.71
		c-6.9,0-13.02-1.42-18.35-4.25c-5.34-2.83-9.46-6.79-12.38-11.88c-2.92-5.09-4.37-10.84-4.37-17.24c0-6.32,1.42-12.03,4.25-17.12
		c2.83-5.09,6.73-9.05,11.7-11.88c4.97-2.83,10.57-4.25,16.81-4.25c6.24,0,11.8,1.42,16.69,4.25c4.88,2.83,8.7,6.79,11.45,11.88
		c2.75,5.09,4.13,10.92,4.13,17.49C600,80.76,599.92,81.95,599.75,83.43z M553.51,61.38c-3.82,3.45-6.06,7.96-6.71,13.55h41.87
		c-0.66-5.5-2.89-9.99-6.71-13.48c-3.82-3.49-8.56-5.23-14.22-5.23S557.33,57.94,553.51,61.38z"/>
</g>
</svg>
